<svg width="95" height="95" viewBox="0 0 95 95" fill="none" xmlns="http://www.w3.org/2000/svg">
<mask id="path-1-inside-1_1493_1033" fill="white">
<path d="M10 53H48V82C48 84.2091 46.2091 86 44 86H14C11.7909 86 10 84.2091 10 82V53Z"/>
</mask>
<path d="M10 53H48V82C48 84.2091 46.2091 86 44 86H14C11.7909 86 10 84.2091 10 82V53Z" fill="url(#paint0_linear_1493_1033)"/>
<path d="M10 53H48H10ZM49 82C49 84.7614 46.7614 87 44 87H14C11.2386 87 9 84.7614 9 82H11C11 83.6569 12.3431 85 14 85H44C45.6569 85 47 83.6569 47 82H49ZM14 87C11.2386 87 9 84.7614 9 82V53H11V82C11 83.6569 12.3431 85 14 85V87ZM49 53V82C49 84.7614 46.7614 87 44 87V85C45.6569 85 47 83.6569 47 82V53H49Z" fill="black" mask="url(#path-1-inside-1_1493_1033)"/>
<mask id="path-3-inside-2_1493_1033" fill="white">
<path d="M85 40L47 40V13C47 10.7909 48.7909 9 51 9L81 9C83.2091 9 85 10.7909 85 13V40Z"/>
</mask>
<path d="M85 40L47 40V13C47 10.7909 48.7909 9 51 9L81 9C83.2091 9 85 10.7909 85 13V40Z" fill="url(#paint1_linear_1493_1033)"/>
<path d="M85 40L47 40L85 40ZM46 13C46 10.2386 48.2386 8 51 8L81 8C83.7614 8 86 10.2386 86 13H84C84 11.3431 82.6569 10 81 10L51 10C49.3431 10 48 11.3431 48 13H46ZM81 8C83.7614 8 86 10.2386 86 13V40H84V13C84 11.3431 82.6569 10 81 10V8ZM46 40V13C46 10.2386 48.2386 8 51 8V10C49.3431 10 48 11.3431 48 13V40H46Z" fill="black" mask="url(#path-3-inside-2_1493_1033)"/>
<path d="M10.5625 13.3242C10.5625 13.3242 10.1938 9.59633 7.92677 6.76069C5.65978 3.92505 1.1137 2.08397 1.1137 2.08397" stroke="black" stroke-width="0.9"/>
<mask id="path-6-inside-3_1493_1033" fill="white">
<path d="M10 13H48V40H10V13Z"/>
</mask>
<path d="M10 13H48V40H10V13Z" fill="url(#paint2_linear_1493_1033)"/>
<path d="M10 13H48H10ZM48 40H10H48ZM9 40V13H11V40H9ZM49 13V40H47V13H49Z" fill="black" mask="url(#path-6-inside-3_1493_1033)"/>
<mask id="path-8-inside-4_1493_1033" fill="white">
<path d="M85 82H47V53H85V82Z"/>
</mask>
<path d="M85 82H47V53H85V82Z" fill="url(#paint3_linear_1493_1033)"/>
<path d="M85 82H47H85ZM47 53H85H47ZM86 53V82H84V53H86ZM46 82V53H48V82H46Z" fill="black" mask="url(#path-8-inside-4_1493_1033)"/>
<path d="M84.48 81.7969C84.48 81.7969 84.8487 85.5247 87.1157 88.3604C89.3827 91.196 93.9288 93.0371 93.9288 93.0371" stroke="black" stroke-width="0.9"/>
<rect x="10" y="30" width="75" height="30" fill="url(#paint4_linear_1493_1033)" fill-opacity="0.2"/>
<rect x="10" y="30" width="75" height="30" fill="url(#paint5_linear_1493_1033)"/>
<path d="M18.412 50.108C18.084 50.108 17.772 50.044 17.476 49.916C17.188 49.788 16.936 49.616 16.72 49.4C16.504 49.184 16.332 48.932 16.204 48.644C16.076 48.348 16.012 48.036 16.012 47.708V43.988H17.044V47.708C17.044 47.9 17.08 48.08 17.152 48.248C17.224 48.416 17.32 48.564 17.44 48.692C17.568 48.812 17.712 48.908 17.872 48.98C18.04 49.052 18.22 49.088 18.412 49.088C18.604 49.088 18.784 49.052 18.952 48.98C19.12 48.908 19.264 48.812 19.384 48.692C19.512 48.564 19.612 48.416 19.684 48.248C19.756 48.08 19.792 47.9 19.792 47.708V43.988H20.812V50.396C20.812 50.732 20.744 51.044 20.608 51.332C20.472 51.628 20.284 51.884 20.044 52.1C19.812 52.316 19.536 52.484 19.216 52.604C18.896 52.732 18.552 52.796 18.184 52.796V51.776C18.408 51.776 18.616 51.74 18.808 51.668C19.008 51.596 19.18 51.496 19.324 51.368C19.468 51.24 19.58 51.092 19.66 50.924C19.748 50.764 19.792 50.588 19.792 50.396V49.676C19.592 49.812 19.376 49.92 19.144 50C18.912 50.072 18.668 50.108 18.412 50.108ZM29.03 50.108C28.694 50.108 28.378 50.044 28.082 49.916C27.794 49.788 27.542 49.616 27.326 49.4C27.11 49.184 26.938 48.932 26.81 48.644C26.69 48.348 26.63 48.036 26.63 47.708V43.988H27.65V47.708C27.65 47.9 27.686 48.08 27.758 48.248C27.83 48.416 27.926 48.564 28.046 48.692C28.174 48.812 28.322 48.908 28.49 48.98C28.658 49.052 28.838 49.088 29.03 49.088C29.222 49.088 29.398 49.052 29.558 48.98C29.726 48.908 29.87 48.812 29.99 48.692C30.118 48.564 30.218 48.416 30.29 48.248C30.362 48.08 30.398 47.9 30.398 47.708V43.988H31.43V47.708C31.43 48.036 31.366 48.348 31.238 48.644C31.11 48.932 30.938 49.184 30.722 49.4C30.506 49.616 30.25 49.788 29.954 49.916C29.666 50.044 29.358 50.108 29.03 50.108ZM38.7651 47.444C38.5411 47.444 38.3291 47.404 38.1291 47.324C37.9371 47.244 37.7651 47.136 37.6131 47C37.4611 46.856 37.3371 46.688 37.2411 46.496C37.1531 46.304 37.1051 46.096 37.0971 45.872C37.0891 45.824 37.0851 45.764 37.0851 45.692C37.0851 45.612 37.0891 45.548 37.0971 45.5C37.1051 45.284 37.1531 45.08 37.2411 44.888C37.3371 44.696 37.4611 44.528 37.6131 44.384C37.7651 44.24 37.9371 44.128 38.1291 44.048C38.3291 43.968 38.5411 43.928 38.7651 43.928H41.0691V44.96H38.7651C38.5971 44.96 38.4491 45.02 38.3211 45.14C38.2011 45.252 38.1331 45.396 38.1171 45.572C38.1011 45.652 38.1011 45.736 38.1171 45.824C38.1331 45.992 38.2011 46.136 38.3211 46.256C38.4491 46.368 38.5971 46.424 38.7651 46.424H39.5931C39.8171 46.424 40.0291 46.468 40.2291 46.556C40.4291 46.636 40.6011 46.748 40.7451 46.892C40.8971 47.036 41.0171 47.204 41.1051 47.396C41.2011 47.588 41.2531 47.796 41.2611 48.02V48.356C41.2611 48.588 41.2131 48.804 41.1171 49.004C41.0291 49.196 40.9091 49.368 40.7571 49.52C40.6131 49.672 40.4371 49.792 40.2291 49.88C40.0291 49.96 39.8131 50 39.5811 50H37.2171V48.98H39.5811C39.7411 48.98 39.8771 48.928 39.9891 48.824C40.1091 48.72 40.1891 48.596 40.2291 48.452V48.404C40.2291 48.388 40.2291 48.376 40.2291 48.368C40.2371 48.352 40.2411 48.336 40.2411 48.32V48.092C40.2331 47.908 40.1651 47.756 40.0371 47.636C39.9171 47.508 39.7651 47.444 39.5811 47.444H38.7651ZM51.8208 46.508C51.7568 46.284 51.6608 46.076 51.5328 45.884C51.4128 45.684 51.2648 45.516 51.0888 45.38C50.9128 45.236 50.7128 45.124 50.4888 45.044C50.2728 44.964 50.0408 44.924 49.7928 44.924C49.5448 44.924 49.3088 44.964 49.0848 45.044C48.8688 45.124 48.6728 45.236 48.4968 45.38C48.3208 45.516 48.1688 45.684 48.0408 45.884C47.9128 46.076 47.8208 46.284 47.7648 46.508H51.8208ZM49.7928 50.144C49.3608 50.144 48.9528 50.064 48.5688 49.904C48.1928 49.736 47.8608 49.512 47.5728 49.232C47.2928 48.944 47.0688 48.612 46.9008 48.236C46.7408 47.86 46.6608 47.456 46.6608 47.024C46.6608 46.592 46.7408 46.184 46.9008 45.8C47.0688 45.416 47.2928 45.084 47.5728 44.804C47.8608 44.524 48.1928 44.304 48.5688 44.144C48.9528 43.976 49.3608 43.892 49.7928 43.892C50.2248 43.892 50.6288 43.976 51.0048 44.144C51.3888 44.304 51.7208 44.524 52.0008 44.804C52.2808 45.084 52.5008 45.416 52.6608 45.8C52.8288 46.184 52.9128 46.592 52.9128 47.024C52.9128 47.08 52.9128 47.14 52.9128 47.204C52.9128 47.268 52.9048 47.376 52.8888 47.528H47.7648C47.8208 47.76 47.9128 47.972 48.0408 48.164C48.1688 48.356 48.3208 48.524 48.4968 48.668C48.6728 48.812 48.8688 48.924 49.0848 49.004C49.3088 49.084 49.5448 49.124 49.7928 49.124C49.9848 49.124 50.1768 49.076 50.3688 48.98C50.5608 48.876 50.7448 48.74 50.9208 48.572L51.6408 49.292C51.3768 49.548 51.0848 49.756 50.7648 49.916C50.4528 50.068 50.1288 50.144 49.7928 50.144ZM58.6267 48.572H59.6707V49.964H58.6267V48.572ZM68.1689 43.856C68.6009 43.856 69.0089 43.94 69.3929 44.108C69.7769 44.268 70.1089 44.492 70.3889 44.78C70.6769 45.06 70.9009 45.392 71.0609 45.776C71.2289 46.152 71.3129 46.556 71.3129 46.988V49.988H70.2689V49.316C69.9889 49.564 69.6689 49.76 69.3089 49.904C68.9569 50.04 68.5769 50.108 68.1689 50.108C67.7369 50.108 67.3329 50.028 66.9569 49.868C66.5809 49.7 66.2489 49.476 65.9609 49.196C65.6809 48.916 65.4569 48.588 65.2889 48.212C65.1289 47.828 65.0489 47.42 65.0489 46.988C65.0489 46.556 65.1289 46.152 65.2889 45.776C65.4569 45.392 65.6809 45.06 65.9609 44.78C66.2489 44.492 66.5809 44.268 66.9569 44.108C67.3329 43.94 67.7369 43.856 68.1689 43.856ZM68.1689 44.888C67.8809 44.888 67.6089 44.944 67.3529 45.056C67.0969 45.16 66.8729 45.308 66.6809 45.5C66.4969 45.692 66.3489 45.916 66.2369 46.172C66.1249 46.428 66.0689 46.7 66.0689 46.988C66.0689 47.276 66.1249 47.548 66.2369 47.804C66.3489 48.06 66.4969 48.284 66.6809 48.476C66.8729 48.66 67.0969 48.808 67.3529 48.92C67.6089 49.032 67.8809 49.088 68.1689 49.088C68.4649 49.088 68.7409 49.032 68.9969 48.92C69.2529 48.808 69.4729 48.66 69.6569 48.476C69.8489 48.284 69.9969 48.06 70.1009 47.804C70.2129 47.548 70.2689 47.276 70.2689 46.988C70.2689 46.7 70.2129 46.428 70.1009 46.172C69.9969 45.916 69.8489 45.692 69.6569 45.5C69.4729 45.308 69.2529 45.16 68.9969 45.056C68.7409 44.944 68.4649 44.888 68.1689 44.888ZM77.016 44H78.048V50H77.016V44ZM77.016 41.216H78.048V42.608H77.016V41.216Z" fill="#7575CF"/>
<defs>
<linearGradient id="paint0_linear_1493_1033" x1="29" y1="86" x2="29" y2="53" gradientUnits="userSpaceOnUse">
<stop stop-color="#DADAF2"/>
<stop offset="1" stop-color="#EBEBF8"/>
</linearGradient>
<linearGradient id="paint1_linear_1493_1033" x1="66" y1="9" x2="66" y2="40" gradientUnits="userSpaceOnUse">
<stop stop-color="#DADAF2"/>
<stop offset="1" stop-color="#EBEBF8"/>
</linearGradient>
<linearGradient id="paint2_linear_1493_1033" x1="29" y1="40" x2="29" y2="13" gradientUnits="userSpaceOnUse">
<stop stop-color="#F2F2FB"/>
<stop offset="1" stop-color="white" stop-opacity="0"/>
</linearGradient>
<linearGradient id="paint3_linear_1493_1033" x1="66" y1="53" x2="66" y2="82" gradientUnits="userSpaceOnUse">
<stop stop-color="#EFEFF9"/>
<stop offset="1" stop-color="white" stop-opacity="0"/>
</linearGradient>
<linearGradient id="paint4_linear_1493_1033" x1="-4.5" y1="45" x2="103" y2="45" gradientUnits="userSpaceOnUse">
<stop stop-color="#FBFBFB" stop-opacity="0.9843"/>
<stop offset="0.163953" stop-color="#FBFBFB" stop-opacity="0.2"/>
<stop offset="0.815116" stop-color="#FBFBFB" stop-opacity="0.2"/>
<stop offset="1" stop-color="#FBFBFB" stop-opacity="0"/>
</linearGradient>
<linearGradient id="paint5_linear_1493_1033" x1="47.5" y1="30" x2="47.5" y2="60" gradientUnits="userSpaceOnUse">
<stop stop-color="#FBFBFB" stop-opacity="0"/>
<stop offset="0.334375" stop-color="white"/>
<stop offset="0.777083" stop-color="white"/>
<stop offset="1" stop-color="#FBFBFB" stop-opacity="0"/>
</linearGradient>
</defs>
</svg>
